<svg width="25" height="24" viewBox="0 0 25 24" fill="none" xmlns="http://www.w3.org/2000/svg">
<g clip-path="url(#clip0_4_90)">
<path fill-rule="evenodd" clip-rule="evenodd" d="M16.25 10.5C16.25 10.9142 15.9142 11.25 15.5 11.25H9.5C9.08579 11.25 8.75 10.9142 8.75 10.5C8.75 10.0858 9.08579 9.75 9.5 9.75H15.5C15.9142 9.75 16.25 10.0858 16.25 10.5ZM15.5 12.75H9.5C9.08579 12.75 8.75 13.0858 8.75 13.5C8.75 13.9142 9.08579 14.25 9.5 14.25H15.5C15.9142 14.25 16.25 13.9142 16.25 13.5C16.25 13.0858 15.9142 12.75 15.5 12.75ZM22.25 11.625C22.2443 16.8003 18.0503 20.9943 12.875 21H4.96906C4.15815 20.999 3.50103 20.3419 3.5 19.5309V11.625C3.5 6.44733 7.69733 2.25 12.875 2.25C18.0527 2.25 22.25 6.44733 22.25 11.625ZM20.75 11.625C20.75 7.27576 17.2242 3.75 12.875 3.75C8.52576 3.75 5 7.27576 5 11.625V19.5H12.875C17.2223 19.4953 20.7453 15.9723 20.75 11.625Z" fill="#4F6E96"/>
</g>
<defs>
<clipPath id="clip0_4_90">
<rect width="24" height="24" fill="white" transform="translate(0.5)"/>
</clipPath>
</defs>
</svg>
