<svg width="48" height="48" viewBox="0 0 48 48" fill="none" xmlns="http://www.w3.org/2000/svg">
<rect width="48" height="48" rx="8" fill="#E8EDF2"/>
<g clip-path="url(#clip0_4_167)">
<path fill-rule="evenodd" clip-rule="evenodd" d="M32.25 17.25H28.5V16.5C28.5 15.2574 27.4926 14.25 26.25 14.25H21.75C20.5074 14.25 19.5 15.2574 19.5 16.5V17.25H15.75C14.9216 17.25 14.25 17.9216 14.25 18.75V30.75C14.25 31.5784 14.9216 32.25 15.75 32.25H32.25C33.0784 32.25 33.75 31.5784 33.75 30.75V18.75C33.75 17.9216 33.0784 17.25 32.25 17.25ZM21 16.5C21 16.0858 21.3358 15.75 21.75 15.75H26.25C26.6642 15.75 27 16.0858 27 16.5V17.25H21V16.5ZM32.25 18.75V22.6509C29.7185 24.0289 26.8822 24.7505 24 24.75C21.1179 24.7505 18.2816 24.0292 15.75 22.6519V18.75H32.25ZM32.25 30.75H15.75V24.3413C18.3187 25.5977 21.1405 26.2506 24 26.25C26.8596 26.2501 29.6813 25.5969 32.25 24.3403V30.75ZM21.75 22.5C21.75 22.0858 22.0858 21.75 22.5 21.75H25.5C25.9142 21.75 26.25 22.0858 26.25 22.5C26.25 22.9142 25.9142 23.25 25.5 23.25H22.5C22.0858 23.25 21.75 22.9142 21.75 22.5Z" fill="#0D141C"/>
</g>
<defs>
<clipPath id="clip0_4_167">
<rect width="24" height="24" fill="white" transform="translate(12 12)"/>
</clipPath>
</defs>
</svg>
