<svg width="24" height="24" viewBox="0 0 24 24" fill="none" xmlns="http://www.w3.org/2000/svg">
<g clip-path="url(#clip0_4_84)">
<path fill-rule="evenodd" clip-rule="evenodd" d="M21.9375 7.51125C21.5103 7.02713 20.8957 6.74987 20.25 6.75H15V5.25C15 3.17893 13.3211 1.5 11.25 1.5C10.9658 1.4998 10.7059 1.66023 10.5787 1.91437L7.03687 9H3C2.17157 9 1.5 9.67157 1.5 10.5V18.75C1.5 19.5784 2.17157 20.25 3 20.25H19.125C20.2592 20.2504 21.2164 19.4065 21.3581 18.2812L22.4831 9.28125C22.5638 8.64028 22.365 7.99556 21.9375 7.51125ZM3 10.5H6.75V18.75H3V10.5ZM20.9944 9.09375L19.8694 18.0938C19.8221 18.4688 19.5031 18.7501 19.125 18.75H8.25V9.92719L11.6916 3.04312C12.7434 3.25363 13.5003 4.17735 13.5 5.25V7.5C13.5 7.91421 13.8358 8.25 14.25 8.25H20.25C20.4653 8.24993 20.6702 8.34238 20.8127 8.50383C20.9551 8.66527 21.0213 8.88014 20.9944 9.09375Z" fill="#4F6E96"/>
</g>
<defs>
<clipPath id="clip0_4_84">
<rect width="24" height="24" fill="white"/>
</clipPath>
</defs>
</svg>

