<svg width="24" height="24" viewBox="0 0 24 24" fill="none" xmlns="http://www.w3.org/2000/svg">
<g clip-path="url(#clip0_4_97)">
<path fill-rule="evenodd" clip-rule="evenodd" d="M20.9878 10.6875L5.23781 1.69781C4.69424 1.3929 4.01876 1.45587 3.54092 1.85601C3.06309 2.25615 2.88247 2.91008 3.08719 3.49875L5.99344 11.9803C5.99306 11.9834 5.99306 11.9866 5.99344 11.9897C5.99291 11.9928 5.99291 11.996 5.99344 11.9991L3.08719 20.4994C2.9247 20.9583 2.99506 21.4676 3.2759 21.8653C3.55675 22.263 4.01314 22.4996 4.5 22.5C4.76031 22.4993 5.01606 22.4315 5.2425 22.3031L20.9841 13.2984C21.4568 13.0336 21.75 12.5344 21.751 11.9925C21.752 11.4506 21.4606 10.9503 20.9888 10.6838L20.9878 10.6875ZM4.5 21V20.9916L7.32562 12.75H12.75C13.1642 12.75 13.5 12.4142 13.5 12C13.5 11.5858 13.1642 11.25 12.75 11.25H7.33313L4.50562 3.01125L4.5 3L20.25 11.9841L4.5 21Z" fill="#4F6E96"/>
</g>
<defs>
<clipPath id="clip0_4_97">
<rect width="24" height="24" fill="white"/>
</clipPath>
</defs>
</svg>
